PathFileType  4	(X/Y/Z) C:\Users\antoi\Documents\MyRepositories\mobilecap\ResultsAnalysis
DataRate	CameraRate	NumFrames	NumMarkers	Units	OrigDataRate	OrigDataStartFrame	OrigNumFrames
100.0	100.0	4	51	mm	100.0	338	1349
Frame#	Time	r_knee			r_shank_antsup			r_ankle			r_calc			r_5meta			r_toe			L_knee			L_shank_antsup			L_ankle			L_calc			L_5meta			L_toe			r_sh2			r_sh3			r_sh4			L_sh2			L_sh3			r_thigh1			r_thigh2			r_thigh3			r_thigh4			r_thigh5			L_thigh1			L_thigh2			L_thigh3			L_thigh4			r.ASIS			r.PSIS			L.ASIS			L.PSIS			C7			R_Shoulder			L_Shoulder			R_Sternum			L_Sternum			R_humerus			R_elbow_med			R_elbow_lat			R_forearm			R_wrist_radius			R_wrist_ulna			L_humerus			L_elbow_med			L_elbow_lat			L_forearm			L_wrist_radius			L_wrist_ulna			R_HJC			L_HJC			R_HJC_reg			L_HJC_reg			
		X1	Y1	Z1	X2	Y2	Z2	X3	Y3	Z3	X4	Y4	Z4	X5	Y5	Z5	X6	Y6	Z6	X7	Y7	Z7	X8	Y8	Z8	X9	Y9	Z9	X10	Y10	Z10	X11	Y11	Z11	X12	Y12	Z12	X13	Y13	Z13	X14	Y14	Z14	X15	Y15	Z15	X16	Y16	Z16	X17	Y17	Z17	X18	Y18	Z18	X19	Y19	Z19	X20	Y20	Z20	X21	Y21	Z21	X22	Y22	Z22	X23	Y23	Z23	X24	Y24	Z24	X25	Y25	Z25	X26	Y26	Z26	X27	Y27	Z27	X28	Y28	Z28	X29	Y29	Z29	X30	Y30	Z30	X31	Y31	Z31	X32	Y32	Z32	X33	Y33	Z33	X34	Y34	Z34	X35	Y35	Z35	X36	Y36	Z36	X37	Y37	Z37	X38	Y38	Z38	X39	Y39	Z39	X40	Y40	Z40	X41	Y41	Z41	X42	Y42	Z42	X43	Y43	Z43	X44	Y44	Z44	X45	Y45	Z45	X46	Y46	Z46	X47	Y47	Z47	X48	Y48	Z48	X49	Y49	Z49	X50	Y50	Z50	X51	Y51	Z51	

338	3.37000000	-117.08010	497.18553	-355.37256	-87.19034	369.92511	-368.68967	-284.86635	99.50046	-422.68360	-348.48815	68.17450	-478.03355	-168.37973	35.44923	-353.36184	-120.74555	61.19673	-418.73177	-140.42863	490.68515	-972.69911	-91.90607	381.85665	-962.93618	-284.09954	93.30766	-908.02891	-348.49820	71.25832	-849.07364	-154.16575	32.71848	-951.03249	-116.62248	59.18312	-886.37944	-125.26874	265.84221	-407.06445	-154.95402	379.52469	-333.13041	-187.56023	267.60769	-350.57355	-173.71805	407.22833	-992.26597	-196.25300	287.94957	-991.46567	-241.10366	709.93819	-433.30720	-147.61100	650.05723	-412.22562	-155.10006	617.02587	-353.17783	-299.29453	644.63031	-360.60674	-199.01089	584.31740	-342.08497	-294.07429	700.01799	-905.58799	-178.77662	637.25314	-947.06192	-354.47762	611.62052	-938.83543	-237.78095	545.32496	-974.33056	-328.10585	757.14533	-516.74960	-469.59548	861.13159	-604.48906	-329.45441	736.42085	-775.44121	-470.10313	858.58082	-701.55706	-132.69728	1217.83826	-649.26486	-46.74809	1127.11609	-472.19868	-41.91605	1138.74587	-809.55932	-24.34852	1091.72274	-630.13656	-31.65470	1086.02620	-665.82770	20.04323	1008.10031	-400.15600	67.29639	780.45609	-420.61091	95.92617	824.84650	-346.79920	178.11956	934.96141	-442.24441	246.39719	997.38760	-508.94773	283.28084	976.17799	-506.51744	26.80251	1012.83345	-886.09855	57.95693	782.16438	-869.91695	102.23632	831.39669	-924.71923	158.40585	930.14981	-804.32797	231.33697	988.97028	-742.08854	270.38111	965.67537	-756.44375	-427.80402	715.74843	-545.51443	-432.20270	690.15219	-757.31964	-424.28763	710.44403	-551.66416	-425.18412	705.94527	-722.88869	
339	3.38000000	-116.51369	496.74183	-355.60727	-86.56821	369.56091	-368.99642	-284.82302	99.48722	-422.74134	-348.47988	68.19104	-478.04812	-168.35359	35.47828	-353.40653	-120.72570	61.11145	-418.87588	-139.67136	490.07609	-973.12166	-91.15470	381.34806	-963.25919	-283.91708	93.37869	-908.03400	-348.47074	71.24977	-848.99526	-154.15575	32.71759	-951.02251	-116.55010	59.07721	-886.35597	-124.88176	265.61729	-407.26250	-154.22991	379.14902	-333.50186	-186.86155	267.13698	-350.89142	-172.87278	406.72493	-992.63739	-195.67262	287.51293	-991.59483	-242.64798	707.92411	-434.42481	-148.50836	649.19964	-413.06882	-155.41833	616.41523	-353.82356	-300.27242	643.11150	-360.57569	-199.04897	583.31427	-342.44774	-295.21830	697.62455	-905.05258	-179.34974	636.26969	-947.07570	-354.91053	608.93199	-939.17384	-237.49904	543.83306	-974.69295	-330.27159	753.74744	-517.90417	-470.24223	856.61776	-604.81201	-331.50447	732.88426	-776.62068	-470.60412	853.91791	-701.97778	-130.69910	1211.32421	-649.19868	-45.04503	1120.06125	-472.29144	-39.96032	1131.95785	-809.42058	-22.95612	1084.39204	-630.17900	-30.39676	1078.74350	-665.80291	21.81725	1001.45938	-400.28556	69.59345	773.95665	-421.15568	98.07895	818.37606	-347.05480	180.02300	928.62296	-442.33787	248.05309	991.47969	-509.21626	285.07651	970.28508	-506.82207	28.82431	1006.24108	-885.84479	59.97730	775.55268	-869.38444	104.31191	824.72284	-924.09957	160.41989	923.69078	-803.91316	233.30358	982.61769	-741.75227	272.37432	959.39214	-756.08664	-429.04361	711.64207	-546.32219	-433.71596	686.22638	-758.14355	-426.17967	706.84472	-552.90293	-426.81811	702.08693	-724.14382	
340	3.39000000	-116.02870	496.46147	-355.80954	-86.00495	369.17062	-369.39851	-284.75971	99.48986	-422.90444	-348.47891	68.19055	-478.09978	-168.27781	35.56781	-353.48396	-120.69203	61.07699	-419.00227	-139.05112	489.49873	-973.70255	-90.52031	380.76938	-963.45476	-283.78616	93.41702	-907.96272	-348.40398	71.23744	-848.86059	-154.16056	32.70202	-951.01074	-116.49888	59.01002	-886.32264	-124.50415	265.30718	-407.63996	-153.61279	378.88066	-333.77509	-186.33911	266.93657	-351.07647	-172.14749	406.47069	-993.38930	-195.22493	286.98088	-991.68151	-244.30444	706.08479	-435.45521	-149.44110	648.35495	-414.04354	-155.98796	615.81891	-354.41506	-301.00272	641.13560	-360.86213	-199.17065	582.39868	-342.78960	-296.43091	695.14035	-904.54968	-179.95725	635.20037	-947.00373	-355.32717	606.39798	-939.69027	-237.31715	542.30616	-974.92429	-332.69021	750.62074	-518.74652	-470.86289	852.18697	-605.27524	-333.21230	729.13889	-777.44525	-471.11211	849.35889	-702.30841	-128.83542	1204.91026	-649.28204	-43.31816	1113.08381	-472.39374	-37.96362	1125.25228	-809.27896	-21.68039	1077.11466	-630.09968	-29.05227	1071.63946	-665.85158	23.59286	994.77628	-400.46750	71.79422	767.27723	-421.33215	100.23724	811.90798	-347.24050	181.89268	922.34965	-442.52112	249.76480	985.48712	-509.40752	286.82611	964.31135	-507.11603	30.85662	999.67941	-885.51837	61.89596	769.02063	-868.83408	106.26281	818.16551	-923.58585	162.33300	917.29896	-803.48951	235.29174	976.24166	-741.40374	274.29735	953.00641	-755.66228	-430.45193	707.75329	-546.89922	-435.02521	682.21031	-758.70663	-428.01781	703.29497	-553.78018	-428.45769	698.30286	-725.03748	
341	3.40000000	-115.56909	496.25749	-355.98253	-85.46456	368.85486	-369.69207	-284.68541	99.55844	-423.11851	-348.49402	68.18574	-478.22081	-168.21587	35.68791	-353.57140	-120.65513	61.04322	-419.11635	-138.50872	488.98833	-974.24867	-89.98284	380.23052	-963.78344	-283.72986	93.41561	-907.92146	-348.35658	71.25291	-848.78656	-154.16640	32.68711	-951.01151	-116.46428	58.97945	-886.29326	-124.17952	265.02158	-408.04265	-153.07996	378.78109	-333.87539	-185.96360	266.89418	-351.18533	-171.56467	406.21582	-994.00858	-194.82784	286.54127	-991.91418	-246.06629	704.37370	-436.22324	-150.49225	647.63007	-414.94660	-156.71676	615.28748	-355.00585	-301.75665	639.24313	-361.07424	-199.43884	581.53827	-343.07823	-297.64090	692.82125	-904.50297	-180.63641	634.04457	-946.80929	-355.73311	603.99071	-940.21419	-237.18228	540.89366	-975.33827	-335.28934	747.72694	-519.16442	-471.37387	847.81003	-605.72470	-334.57373	725.13608	-777.80163	-471.61426	844.90314	-702.48473	-127.10316	1198.52268	-649.33849	-41.59701	1106.16242	-472.52624	-36.00651	1118.62382	-808.97516	-20.36292	1069.94524	-629.95086	-27.72093	1064.68511	-665.90003	25.33579	988.18996	-400.69070	73.91764	760.62356	-421.40370	102.33279	805.48176	-347.46669	183.74346	916.13306	-442.83266	251.52610	979.21740	-509.56184	288.57377	958.29763	-507.34823	32.82797	993.18198	-885.12574	63.77248	762.54161	-868.17537	108.13669	811.69396	-923.19851	164.19690	910.83188	-803.02861	237.22317	969.82089	-740.94974	276.17877	946.58163	-755.21787	-431.98203	704.06580	-547.12243	-436.13059	678.07339	-758.88362	-429.70513	699.74134	-554.12649	-430.13107	694.59561	-725.40194	
